<svg height="480pt" viewBox="-84 0 480 480.14798" width="480pt" xmlns="http://www.w3.org/2000/svg"><path d="m144.101562 311.539062v16.609376c-13.253906 0-24 10.746093-24 24v96c0 17.671874 14.328126 32 32 32 17.675782 0 32-14.328126 32-32v-96c0-13.253907-10.746093-24-24-24v-16.199219c84.570313-2.1875 151.988282-71.378907 151.972657-155.976563s-67.453125-153.765625-152.023438-155.9218748c-84.570312-2.1562502-155.445312 63.4843748-159.773437 147.9726568-4.324219 84.488281 59.476562 157.023437 143.824218 163.515624zm24 40.609376v96c0 8.835937-7.164062 16-16 16-8.835937 0-16-7.164063-16-16v-96c0-4.417969 3.582032-8 8-8h16c4.417969 0 8 3.582031 8 8zm-12-336c77.320313 0 140 62.679687 140 140 0 77.320312-62.679687 140-140 140-77.320312 0-140-62.679688-140-140 .09375-77.28125 62.71875-139.90625 140-140zm0 0"/><path d="m156.101562 280.148438c68.484376 0 124-55.515626 124-124 0-68.484376-55.515624-124-124-124-68.480468 0-124 55.515624-124 124 .074219 68.453124 55.546876 123.925781 124 124zm-52.183593-29.511719 12.449219-12.449219 24.800781 24.800781c-13.070313-1.792969-25.699219-5.980469-37.25-12.351562zm97.402343-97.402344 25.511719-25.511719 25.503907 25.511719-25.503907 25.503906zm14.199219 36.800781-25.511719 25.511719-25.503906-25.496094 25.503906-25.503906zm-25.511719-48.128906-25.503906-25.496094 25.503906-25.503906 25.511719 25.503906zm-11.3125 11.3125-25.503906 25.503906-25.511718-25.503906 25.511718-25.511719zm-62.328124-11.3125-25.9375-25.941406 25.265624-25.753906 26.183594 26.183593zm-11.3125 11.3125-25.511719 25.519531-25.601563-25.597656 25.265625-25.753906zm11.3125 11.3125 25.511718 25.503906-25.511718 25.511719-25.503907-25.511719zm36.800781 87.832031-25.511719-25.503906 25.511719-25.511719 25.503906 25.511719zm11.335937 11.34375 25.503906-25.503906 14.398438 14.402344c-12.441406 6.265625-25.988281 10.042969-39.878906 11.117187zm54.023438-19.625-17.234375-17.222656 25.511719-25.503906 17.226562 17.222656c-7.015625 9.867187-15.625 18.492187-25.480469 25.523437zm45.128906-79.527343c-1.078125 13.898437-4.859375 27.449218-11.128906 39.898437l-14.402344-14.402344 25.503906-25.503906zm-13.089844-60.613282c6.375 11.554688 10.566406 24.1875 12.359375 37.261719l-24.800781-24.800781zm-35.480468-38.152344c10.125 6.652344 19.0625 14.957032 26.449218 24.558594l-14.730468 14.734375-25.484376-25.492187zm-14.625-8-10.476563 10.472657-18.945313-18.953125c10.171876 1.398437 20.089844 4.261718 29.449219 8.496094zm-21.765626 21.800782-25.503906 25.511718-26.289062-26.289062 25.265625-25.753906zm-46.945312-28.570313-16.167969 16.472657-7.792969-7.800782c7.617188-3.832031 15.660157-6.742187 23.960938-8.671875zm-38.09375 17.167969 10.726562 10.726562-25.265624 25.753907-10.964844-10.96875c7.019531-9.863281 15.640625-18.488281 25.503906-25.511719zm-34 39.640625 8.253906 8.265625-17.480468 17.8125c1.933593-9.054688 5.03125-17.820312 9.226562-26.078125zm-10.402344 63.246094 18.976563 18.976562-10.480469 10.480469c-4.226562-9.359375-7.085938-19.28125-8.496094-29.457031zm30.289063 30.289062 25.511719 25.511719-14.734376 14.738281c-9.605468-7.390625-17.90625-16.332031-24.5625-26.457031zm0 0"/></svg>